<svg width="310" height="78" viewBox="0 0 310 78" fill="none" xmlns="http://www.w3.org/2000/svg">
<rect y="4" width="310" height="74" fill="#2A2A2A"/>
<path d="M8.14 67V58.24H9.412L12.232 65.896C12.224 65.712 12.212 65.488 12.196 65.224C12.18 64.952 12.164 64.676 12.148 64.396C12.14 64.116 12.136 63.864 12.136 63.64V58.24H13.06V67H11.776L8.98 59.344C8.996 59.504 9.008 59.712 9.016 59.968C9.024 60.216 9.032 60.484 9.04 60.772C9.056 61.052 9.064 61.328 9.064 61.6V67H8.14ZM17.7953 67.12C17.2833 67.12 16.8393 67.02 16.4633 66.82C16.0873 66.612 15.7953 66.32 15.5873 65.944C15.3793 65.568 15.2753 65.132 15.2753 64.636V62.764C15.2753 62.26 15.3793 61.824 15.5873 61.456C15.7953 61.08 16.0873 60.792 16.4633 60.592C16.8393 60.384 17.2833 60.28 17.7953 60.28C18.3073 60.28 18.7513 60.384 19.1273 60.592C19.5033 60.792 19.7953 61.08 20.0033 61.456C20.2113 61.824 20.3153 62.26 20.3153 62.764V63.928H16.2113V64.636C16.2113 65.172 16.3473 65.588 16.6193 65.884C16.8993 66.172 17.2913 66.316 17.7953 66.316C18.2193 66.316 18.5633 66.232 18.8273 66.064C19.0993 65.896 19.2713 65.652 19.3433 65.332H20.2913C20.2033 65.884 19.9353 66.32 19.4873 66.64C19.0393 66.96 18.4753 67.12 17.7953 67.12ZM19.3793 63.292V62.764C19.3793 62.228 19.2433 61.816 18.9713 61.528C18.6993 61.232 18.3073 61.084 17.7953 61.084C17.2913 61.084 16.8993 61.232 16.6193 61.528C16.3473 61.816 16.2113 62.228 16.2113 62.764V63.184H19.4753L19.3793 63.292ZM22.0746 67L24.4146 63.604L22.2186 60.4H23.3346L24.7266 62.536C24.7746 62.616 24.8226 62.708 24.8706 62.812C24.9266 62.908 24.9706 62.984 25.0026 63.04C25.0346 62.984 25.0746 62.908 25.1226 62.812C25.1786 62.708 25.2306 62.616 25.2786 62.536L26.6706 60.4H27.7746L25.5786 63.616L27.9066 67H26.7906L25.3026 64.744C25.2466 64.664 25.1906 64.568 25.1346 64.456C25.0866 64.344 25.0426 64.256 25.0026 64.192C24.9706 64.256 24.9226 64.344 24.8586 64.456C24.7946 64.568 24.7346 64.664 24.6786 64.744L23.1786 67H22.0746ZM32.9059 67C32.3539 67 31.9259 66.856 31.6219 66.568C31.3179 66.272 31.1659 65.856 31.1659 65.32V61.264H29.2939V60.4H31.1659V58.54H32.1259V60.4H34.7779V61.264H32.1259V65.32C32.1259 65.864 32.3859 66.136 32.9059 66.136H34.6579V67H32.9059ZM37.4613 63.46V62.62H41.3013V63.46H37.4613ZM46.6366 67.12C46.1166 67.12 45.6646 67.02 45.2806 66.82C44.9046 66.62 44.6126 66.332 44.4046 65.956C44.1966 65.58 44.0926 65.14 44.0926 64.636V60.604C44.0926 60.092 44.1966 59.652 44.4046 59.284C44.6126 58.908 44.9046 58.62 45.2806 58.42C45.6646 58.22 46.1166 58.12 46.6366 58.12C47.1486 58.12 47.5926 58.224 47.9686 58.432C48.3526 58.632 48.6486 58.92 48.8566 59.296C49.0646 59.672 49.1686 60.12 49.1686 60.64H48.2206C48.2206 60.112 48.0806 59.704 47.8006 59.416C47.5206 59.12 47.1326 58.972 46.6366 58.972C46.1406 58.972 45.7486 59.116 45.4606 59.404C45.1806 59.684 45.0406 60.084 45.0406 60.604V64.636C45.0406 65.148 45.1806 65.548 45.4606 65.836C45.7486 66.124 46.1406 66.268 46.6366 66.268C47.1326 66.268 47.5206 66.124 47.8006 65.836C48.0806 65.54 48.2206 65.128 48.2206 64.6V63.46H46.3606V62.584H49.1686V64.6C49.1686 65.112 49.0646 65.56 48.8566 65.944C48.6486 66.32 48.3526 66.612 47.9686 66.82C47.5926 67.02 47.1486 67.12 46.6366 67.12ZM51.4319 67V58.24H56.3759V59.104H52.3799V61.996H55.9559V62.848H52.3799V66.136H56.3759V67H51.4319ZM58.5072 67V58.24H59.7792L62.5992 65.896C62.5912 65.712 62.5792 65.488 62.5632 65.224C62.5472 64.952 62.5312 64.676 62.5152 64.396C62.5072 64.116 62.5032 63.864 62.5032 63.64V58.24H63.4272V67H62.1432L59.3472 59.344C59.3632 59.504 59.3752 59.712 59.3832 59.968C59.3912 60.216 59.3992 60.484 59.4072 60.772C59.4232 61.052 59.4312 61.328 59.4312 61.6V67H58.5072ZM75.3578 67.12C74.8458 67.12 74.4018 67.02 74.0258 66.82C73.6578 66.62 73.3738 66.336 73.1738 65.968C72.9738 65.592 72.8738 65.148 72.8738 64.636V60.604C72.8738 60.092 72.9738 59.652 73.1738 59.284C73.3738 58.908 73.6578 58.62 74.0258 58.42C74.4018 58.22 74.8458 58.12 75.3578 58.12C75.8698 58.12 76.3098 58.22 76.6778 58.42C77.0538 58.62 77.3418 58.908 77.5418 59.284C77.7418 59.652 77.8418 60.092 77.8418 60.604V64.636C77.8418 65.148 77.7418 65.592 77.5418 65.968C77.3418 66.336 77.0538 66.62 76.6778 66.82C76.3098 67.02 75.8698 67.12 75.3578 67.12ZM75.3578 66.268C75.8538 66.268 76.2338 66.128 76.4978 65.848C76.7618 65.56 76.8938 65.156 76.8938 64.636V60.604C76.8938 60.084 76.7578 59.684 76.4858 59.404C76.2218 59.116 75.8458 58.972 75.3578 58.972C74.8698 58.972 74.4898 59.116 74.2178 59.404C73.9538 59.684 73.8218 60.084 73.8218 60.604V64.636C73.8218 65.156 73.9538 65.56 74.2178 65.848C74.4898 66.128 74.8698 66.268 75.3578 66.268ZM80.1171 69.16V60.4H81.0651V61.564H81.3171L81.0291 61.96C81.0291 61.44 81.1971 61.032 81.5331 60.736C81.8771 60.432 82.3291 60.28 82.8891 60.28C83.5531 60.28 84.0811 60.5 84.4731 60.94C84.8731 61.372 85.0731 61.964 85.0731 62.716V64.672C85.0731 65.176 84.9811 65.612 84.7971 65.98C84.6131 66.34 84.3571 66.62 84.0291 66.82C83.7091 67.02 83.3291 67.12 82.8891 67.12C82.3371 67.12 81.8891 66.968 81.5451 66.664C81.2011 66.36 81.0291 65.952 81.0291 65.44L81.2811 65.836H81.0531L81.0651 67.18V69.16H80.1171ZM82.5891 66.292C83.0691 66.292 83.4411 66.148 83.7051 65.86C83.9771 65.572 84.1131 65.164 84.1131 64.636V62.764C84.1131 62.228 83.9771 61.82 83.7051 61.54C83.4411 61.252 83.0691 61.108 82.5891 61.108C82.1251 61.108 81.7531 61.256 81.4731 61.552C81.2011 61.84 81.0651 62.244 81.0651 62.764V64.636C81.0651 65.156 81.2011 65.564 81.4731 65.86C81.7531 66.148 82.1251 66.292 82.5891 66.292ZM89.7484 67.12C89.2364 67.12 88.7924 67.02 88.4164 66.82C88.0404 66.612 87.7484 66.32 87.5404 65.944C87.3324 65.568 87.2284 65.132 87.2284 64.636V62.764C87.2284 62.26 87.3324 61.824 87.5404 61.456C87.7484 61.08 88.0404 60.792 88.4164 60.592C88.7924 60.384 89.2364 60.28 89.7484 60.28C90.2604 60.28 90.7044 60.384 91.0804 60.592C91.4564 60.792 91.7484 61.08 91.9564 61.456C92.1644 61.824 92.2684 62.26 92.2684 62.764V63.928H88.1644V64.636C88.1644 65.172 88.3004 65.588 88.5724 65.884C88.8524 66.172 89.2444 66.316 89.7484 66.316C90.1724 66.316 90.5164 66.232 90.7804 66.064C91.0524 65.896 91.2244 65.652 91.2964 65.332H92.2444C92.1564 65.884 91.8884 66.32 91.4404 66.64C90.9924 66.96 90.4284 67.12 89.7484 67.12ZM91.3324 63.292V62.764C91.3324 62.228 91.1964 61.816 90.9244 61.528C90.6524 61.232 90.2604 61.084 89.7484 61.084C89.2444 61.084 88.8524 61.232 88.5724 61.528C88.3004 61.816 88.1644 62.228 88.1644 62.764V63.184H91.4284L91.3324 63.292ZM94.7238 67V60.4H95.6598V61.624H95.8878L95.5518 62.38C95.5598 61.708 95.7238 61.192 96.0438 60.832C96.3638 60.464 96.8238 60.28 97.4238 60.28C98.1198 60.28 98.6718 60.5 99.0798 60.94C99.4958 61.372 99.7038 61.956 99.7038 62.692V63.088H98.7318V62.764C98.7318 62.228 98.5998 61.816 98.3358 61.528C98.0718 61.232 97.6958 61.084 97.2078 61.084C96.7358 61.084 96.3638 61.232 96.0918 61.528C95.8198 61.824 95.6838 62.236 95.6838 62.764V67H94.7238ZM103.623 67.12C102.927 67.12 102.379 66.944 101.979 66.592C101.579 66.232 101.379 65.748 101.379 65.14C101.379 64.54 101.575 64.068 101.967 63.724C102.359 63.372 102.887 63.196 103.551 63.196H105.651V62.5C105.651 62.06 105.523 61.72 105.267 61.48C105.011 61.24 104.647 61.12 104.175 61.12C103.759 61.12 103.411 61.212 103.131 61.396C102.859 61.58 102.703 61.828 102.663 62.14H101.703C101.783 61.572 102.047 61.12 102.495 60.784C102.951 60.448 103.519 60.28 104.199 60.28C104.935 60.28 105.519 60.48 105.951 60.88C106.383 61.272 106.599 61.804 106.599 62.476V67H105.663V65.716H105.507L105.687 65.524C105.687 66.012 105.499 66.4 105.123 66.688C104.747 66.976 104.247 67.12 103.623 67.12ZM103.851 66.352C104.379 66.352 104.811 66.22 105.147 65.956C105.483 65.692 105.651 65.348 105.651 64.924V63.928H103.563C103.187 63.928 102.887 64.032 102.663 64.24C102.439 64.448 102.327 64.732 102.327 65.092C102.327 65.476 102.463 65.784 102.735 66.016C103.007 66.24 103.379 66.352 103.851 66.352ZM112.054 67C111.502 67 111.074 66.856 110.77 66.568C110.466 66.272 110.314 65.856 110.314 65.32V61.264H108.442V60.4H110.314V58.54H111.274V60.4H113.926V61.264H111.274V65.32C111.274 65.864 111.534 66.136 112.054 66.136H113.806V67H112.054ZM115.986 67V66.136H118.338V61.264H116.286V60.4H119.298V66.136H121.53V67H115.986ZM118.71 59.188C118.462 59.188 118.262 59.124 118.11 58.996C117.966 58.868 117.894 58.692 117.894 58.468C117.894 58.236 117.966 58.052 118.11 57.916C118.262 57.78 118.462 57.712 118.71 57.712C118.958 57.712 119.154 57.78 119.298 57.916C119.45 58.052 119.526 58.236 119.526 58.468C119.526 58.684 119.45 58.86 119.298 58.996C119.154 59.124 118.958 59.188 118.71 59.188ZM125.725 67.108C125.213 67.108 124.769 67.008 124.393 66.808C124.017 66.608 123.725 66.32 123.517 65.944C123.309 65.568 123.205 65.124 123.205 64.612V62.788C123.205 62.268 123.309 61.824 123.517 61.456C123.725 61.08 124.017 60.792 124.393 60.592C124.769 60.392 125.213 60.292 125.725 60.292C126.237 60.292 126.681 60.392 127.057 60.592C127.433 60.792 127.725 61.08 127.933 61.456C128.141 61.824 128.245 62.264 128.245 62.776V64.612C128.245 65.124 128.141 65.568 127.933 65.944C127.725 66.32 127.433 66.608 127.057 66.808C126.681 67.008 126.237 67.108 125.725 67.108ZM125.725 66.256C126.221 66.256 126.605 66.116 126.877 65.836C127.149 65.556 127.285 65.148 127.285 64.612V62.788C127.285 62.252 127.145 61.844 126.865 61.564C126.593 61.284 126.213 61.144 125.725 61.144C125.237 61.144 124.853 61.284 124.573 61.564C124.301 61.844 124.165 62.252 124.165 62.788V64.612C124.165 65.148 124.301 65.556 124.573 65.836C124.853 66.116 125.237 66.256 125.725 66.256ZM130.484 67V60.4H131.432V61.624H131.672L131.408 61.972C131.408 61.444 131.568 61.032 131.888 60.736C132.216 60.432 132.66 60.28 133.22 60.28C133.876 60.28 134.4 60.488 134.792 60.904C135.184 61.312 135.38 61.868 135.38 62.572V67H134.432V62.68C134.432 62.176 134.3 61.788 134.036 61.516C133.772 61.244 133.412 61.108 132.956 61.108C132.484 61.108 132.112 61.252 131.84 61.54C131.568 61.828 131.432 62.236 131.432 62.764V67H130.484ZM139.876 67.108C139.444 67.108 139.064 67.036 138.736 66.892C138.408 66.748 138.148 66.548 137.956 66.292C137.764 66.028 137.648 65.724 137.608 65.38H138.556C138.612 65.644 138.752 65.856 138.976 66.016C139.208 66.176 139.508 66.256 139.876 66.256H140.464C140.888 66.256 141.208 66.164 141.424 65.98C141.648 65.788 141.76 65.536 141.76 65.224C141.76 64.928 141.664 64.688 141.472 64.504C141.28 64.32 141.004 64.2 140.644 64.144L139.648 63.988C139.024 63.884 138.552 63.684 138.232 63.388C137.92 63.092 137.764 62.676 137.764 62.14C137.764 61.556 137.952 61.104 138.328 60.784C138.712 60.456 139.264 60.292 139.984 60.292H140.452C141.076 60.292 141.576 60.44 141.952 60.736C142.336 61.032 142.568 61.432 142.648 61.936H141.688C141.64 61.696 141.508 61.504 141.292 61.36C141.084 61.216 140.804 61.144 140.452 61.144H139.984C139.56 61.144 139.244 61.232 139.036 61.408C138.828 61.576 138.724 61.82 138.724 62.14C138.724 62.428 138.812 62.648 138.988 62.8C139.164 62.944 139.432 63.044 139.792 63.1L140.776 63.256C141.432 63.36 141.92 63.568 142.24 63.88C142.56 64.184 142.72 64.612 142.72 65.164C142.72 65.764 142.528 66.24 142.144 66.592C141.76 66.936 141.2 67.108 140.464 67.108H139.876ZM152.07 67V58.24H154.71C155.23 58.24 155.682 58.344 156.066 58.552C156.458 58.76 156.758 59.052 156.966 59.428C157.182 59.796 157.29 60.232 157.29 60.736C157.29 61.336 157.13 61.848 156.81 62.272C156.49 62.696 156.054 62.98 155.502 63.124L157.398 67H156.27L154.518 63.22H153.018V67H152.07ZM153.018 62.356H154.71C155.198 62.356 155.586 62.208 155.874 61.912C156.17 61.616 156.318 61.22 156.318 60.724C156.318 60.228 156.17 59.836 155.874 59.548C155.586 59.252 155.198 59.104 154.71 59.104H153.018V62.356ZM161.702 67.12C161.19 67.12 160.746 67.02 160.37 66.82C159.994 66.612 159.702 66.32 159.494 65.944C159.286 65.568 159.182 65.132 159.182 64.636V62.764C159.182 62.26 159.286 61.824 159.494 61.456C159.702 61.08 159.994 60.792 160.37 60.592C160.746 60.384 161.19 60.28 161.702 60.28C162.214 60.28 162.658 60.384 163.034 60.592C163.41 60.792 163.702 61.08 163.91 61.456C164.118 61.824 164.222 62.26 164.222 62.764V63.928H160.118V64.636C160.118 65.172 160.254 65.588 160.526 65.884C160.806 66.172 161.198 66.316 161.702 66.316C162.126 66.316 162.47 66.232 162.734 66.064C163.006 65.896 163.178 65.652 163.25 65.332H164.198C164.11 65.884 163.842 66.32 163.394 66.64C162.946 66.96 162.382 67.12 161.702 67.12ZM163.286 63.292V62.764C163.286 62.228 163.15 61.816 162.878 61.528C162.606 61.232 162.214 61.084 161.702 61.084C161.198 61.084 160.806 61.232 160.526 61.528C160.254 61.816 160.118 62.228 160.118 62.764V63.184H163.382L163.286 63.292ZM168.381 67.12C167.685 67.12 167.137 66.944 166.737 66.592C166.337 66.232 166.137 65.748 166.137 65.14C166.137 64.54 166.333 64.068 166.725 63.724C167.117 63.372 167.645 63.196 168.309 63.196H170.409V62.5C170.409 62.06 170.281 61.72 170.025 61.48C169.769 61.24 169.405 61.12 168.933 61.12C168.517 61.12 168.169 61.212 167.889 61.396C167.617 61.58 167.461 61.828 167.421 62.14H166.461C166.541 61.572 166.805 61.12 167.253 60.784C167.709 60.448 168.277 60.28 168.957 60.28C169.693 60.28 170.277 60.48 170.709 60.88C171.141 61.272 171.357 61.804 171.357 62.476V67H170.421V65.716H170.265L170.445 65.524C170.445 66.012 170.257 66.4 169.881 66.688C169.505 66.976 169.005 67.12 168.381 67.12ZM168.609 66.352C169.137 66.352 169.569 66.22 169.905 65.956C170.241 65.692 170.409 65.348 170.409 64.924V63.928H168.321C167.945 63.928 167.645 64.032 167.421 64.24C167.197 64.448 167.085 64.732 167.085 65.092C167.085 65.476 167.221 65.784 167.493 66.016C167.765 66.24 168.137 66.352 168.609 66.352ZM175.768 67.12C175.112 67.12 174.58 66.9 174.172 66.46C173.772 66.02 173.572 65.428 173.572 64.684V62.728C173.572 61.976 173.772 61.38 174.172 60.94C174.572 60.5 175.104 60.28 175.768 60.28C176.32 60.28 176.764 60.432 177.1 60.736C177.444 61.04 177.616 61.448 177.616 61.96L177.364 61.564H177.592L177.58 60.124V58.24H178.528V67H177.58V65.836H177.328L177.616 65.44C177.616 65.96 177.444 66.372 177.1 66.676C176.764 66.972 176.32 67.12 175.768 67.12ZM176.068 66.292C176.54 66.292 176.908 66.148 177.172 65.86C177.444 65.564 177.58 65.156 177.58 64.636V62.764C177.58 62.244 177.444 61.84 177.172 61.552C176.908 61.256 176.54 61.108 176.068 61.108C175.588 61.108 175.212 61.252 174.94 61.54C174.668 61.828 174.532 62.236 174.532 62.764V64.636C174.532 65.164 174.668 65.572 174.94 65.86C175.212 66.148 175.588 66.292 176.068 66.292ZM180.744 67V66.136H183.096V61.264H181.044V60.4H184.056V66.136H186.288V67H180.744ZM183.468 59.188C183.22 59.188 183.02 59.124 182.868 58.996C182.724 58.868 182.652 58.692 182.652 58.468C182.652 58.236 182.724 58.052 182.868 57.916C183.02 57.78 183.22 57.712 183.468 57.712C183.716 57.712 183.912 57.78 184.056 57.916C184.208 58.052 184.284 58.236 184.284 58.468C184.284 58.684 184.208 58.86 184.056 58.996C183.912 59.124 183.716 59.188 183.468 59.188ZM188.047 67V60.4H188.995V61.624H189.235L188.971 61.972C188.971 61.444 189.131 61.032 189.451 60.736C189.779 60.432 190.223 60.28 190.783 60.28C191.439 60.28 191.963 60.488 192.355 60.904C192.747 61.312 192.943 61.868 192.943 62.572V67H191.995V62.68C191.995 62.176 191.863 61.788 191.599 61.516C191.335 61.244 190.975 61.108 190.519 61.108C190.047 61.108 189.675 61.252 189.403 61.54C189.131 61.828 188.995 62.236 188.995 62.764V67H188.047ZM197.678 67.12C197.166 67.12 196.722 67.02 196.346 66.82C195.97 66.612 195.678 66.32 195.47 65.944C195.262 65.568 195.158 65.132 195.158 64.636V62.764C195.158 62.26 195.262 61.824 195.47 61.456C195.678 61.08 195.97 60.792 196.346 60.592C196.722 60.384 197.166 60.28 197.678 60.28C198.19 60.28 198.634 60.384 199.01 60.592C199.386 60.792 199.678 61.08 199.886 61.456C200.094 61.824 200.198 62.26 200.198 62.764V63.928H196.094V64.636C196.094 65.172 196.23 65.588 196.502 65.884C196.782 66.172 197.174 66.316 197.678 66.316C198.102 66.316 198.446 66.232 198.71 66.064C198.982 65.896 199.154 65.652 199.226 65.332H200.174C200.086 65.884 199.818 66.32 199.37 66.64C198.922 66.96 198.358 67.12 197.678 67.12ZM199.262 63.292V62.764C199.262 62.228 199.126 61.816 198.854 61.528C198.582 61.232 198.19 61.084 197.678 61.084C197.174 61.084 196.782 61.232 196.502 61.528C196.23 61.816 196.094 62.228 196.094 62.764V63.184H199.358L199.262 63.292ZM204.633 67.108C204.201 67.108 203.821 67.036 203.493 66.892C203.165 66.748 202.905 66.548 202.713 66.292C202.521 66.028 202.405 65.724 202.365 65.38H203.313C203.369 65.644 203.509 65.856 203.733 66.016C203.965 66.176 204.265 66.256 204.633 66.256H205.221C205.645 66.256 205.965 66.164 206.181 65.98C206.405 65.788 206.517 65.536 206.517 65.224C206.517 64.928 206.421 64.688 206.229 64.504C206.037 64.32 205.761 64.2 205.401 64.144L204.405 63.988C203.781 63.884 203.309 63.684 202.989 63.388C202.677 63.092 202.521 62.676 202.521 62.14C202.521 61.556 202.709 61.104 203.085 60.784C203.469 60.456 204.021 60.292 204.741 60.292H205.209C205.833 60.292 206.333 60.44 206.709 60.736C207.093 61.032 207.325 61.432 207.405 61.936H206.445C206.397 61.696 206.265 61.504 206.049 61.36C205.841 61.216 205.561 61.144 205.209 61.144H204.741C204.317 61.144 204.001 61.232 203.793 61.408C203.585 61.576 203.481 61.82 203.481 62.14C203.481 62.428 203.569 62.648 203.745 62.8C203.921 62.944 204.189 63.044 204.549 63.1L205.533 63.256C206.189 63.36 206.677 63.568 206.997 63.88C207.317 64.184 207.477 64.612 207.477 65.164C207.477 65.764 207.285 66.24 206.901 66.592C206.517 66.936 205.957 67.108 205.221 67.108H204.633ZM211.829 67.108C211.397 67.108 211.017 67.036 210.689 66.892C210.361 66.748 210.101 66.548 209.909 66.292C209.717 66.028 209.601 65.724 209.561 65.38H210.509C210.565 65.644 210.705 65.856 210.929 66.016C211.161 66.176 211.461 66.256 211.829 66.256H212.417C212.841 66.256 213.161 66.164 213.377 65.98C213.601 65.788 213.713 65.536 213.713 65.224C213.713 64.928 213.617 64.688 213.425 64.504C213.233 64.32 212.957 64.2 212.597 64.144L211.601 63.988C210.977 63.884 210.505 63.684 210.185 63.388C209.873 63.092 209.717 62.676 209.717 62.14C209.717 61.556 209.905 61.104 210.281 60.784C210.665 60.456 211.217 60.292 211.937 60.292H212.405C213.029 60.292 213.529 60.44 213.905 60.736C214.289 61.032 214.521 61.432 214.601 61.936H213.641C213.593 61.696 213.461 61.504 213.245 61.36C213.037 61.216 212.757 61.144 212.405 61.144H211.937C211.513 61.144 211.197 61.232 210.989 61.408C210.781 61.576 210.677 61.82 210.677 62.14C210.677 62.428 210.765 62.648 210.941 62.8C211.117 62.944 211.385 63.044 211.745 63.1L212.729 63.256C213.385 63.36 213.873 63.568 214.193 63.88C214.513 64.184 214.673 64.612 214.673 65.164C214.673 65.764 214.481 66.24 214.097 66.592C213.713 66.936 213.153 67.108 212.417 67.108H211.829ZM223.519 67L225.835 58.24H227.095L229.399 67H228.439L227.827 64.624H225.091L224.491 67H223.519ZM225.283 63.808H227.623L226.879 60.88C226.759 60.392 226.663 59.984 226.591 59.656C226.519 59.32 226.475 59.104 226.459 59.008C226.443 59.104 226.399 59.32 226.327 59.656C226.255 59.984 226.159 60.392 226.039 60.88L225.283 63.808ZM233.415 67.108C232.983 67.108 232.603 67.036 232.275 66.892C231.947 66.748 231.687 66.548 231.495 66.292C231.303 66.028 231.187 65.724 231.147 65.38H232.095C232.151 65.644 232.291 65.856 232.515 66.016C232.747 66.176 233.047 66.256 233.415 66.256H234.003C234.427 66.256 234.747 66.164 234.963 65.98C235.187 65.788 235.299 65.536 235.299 65.224C235.299 64.928 235.203 64.688 235.011 64.504C234.819 64.32 234.543 64.2 234.183 64.144L233.187 63.988C232.563 63.884 232.091 63.684 231.771 63.388C231.459 63.092 231.303 62.676 231.303 62.14C231.303 61.556 231.491 61.104 231.867 60.784C232.251 60.456 232.803 60.292 233.523 60.292H233.991C234.615 60.292 235.115 60.44 235.491 60.736C235.875 61.032 236.107 61.432 236.187 61.936H235.227C235.179 61.696 235.047 61.504 234.831 61.36C234.623 61.216 234.343 61.144 233.991 61.144H233.523C233.099 61.144 232.783 61.232 232.575 61.408C232.367 61.576 232.263 61.82 232.263 62.14C232.263 62.428 232.351 62.648 232.527 62.8C232.703 62.944 232.971 63.044 233.331 63.1L234.315 63.256C234.971 63.36 235.459 63.568 235.779 63.88C236.099 64.184 236.259 64.612 236.259 65.164C236.259 65.764 236.067 66.24 235.683 66.592C235.299 66.936 234.739 67.108 234.003 67.108H233.415ZM240.61 67.108C240.178 67.108 239.798 67.036 239.47 66.892C239.142 66.748 238.882 66.548 238.69 66.292C238.498 66.028 238.382 65.724 238.342 65.38H239.29C239.346 65.644 239.486 65.856 239.71 66.016C239.942 66.176 240.242 66.256 240.61 66.256H241.198C241.622 66.256 241.942 66.164 242.158 65.98C242.382 65.788 242.494 65.536 242.494 65.224C242.494 64.928 242.398 64.688 242.206 64.504C242.014 64.32 241.738 64.2 241.378 64.144L240.382 63.988C239.758 63.884 239.286 63.684 238.966 63.388C238.654 63.092 238.498 62.676 238.498 62.14C238.498 61.556 238.686 61.104 239.062 60.784C239.446 60.456 239.998 60.292 240.718 60.292H241.186C241.81 60.292 242.31 60.44 242.686 60.736C243.07 61.032 243.302 61.432 243.382 61.936H242.422C242.374 61.696 242.242 61.504 242.026 61.36C241.818 61.216 241.538 61.144 241.186 61.144H240.718C240.294 61.144 239.978 61.232 239.77 61.408C239.562 61.576 239.458 61.82 239.458 62.14C239.458 62.428 239.546 62.648 239.722 62.8C239.898 62.944 240.166 63.044 240.526 63.1L241.51 63.256C242.166 63.36 242.654 63.568 242.974 63.88C243.294 64.184 243.454 64.612 243.454 65.164C243.454 65.764 243.262 66.24 242.878 66.592C242.494 66.936 241.934 67.108 241.198 67.108H240.61ZM248.045 67.12C247.533 67.12 247.089 67.02 246.713 66.82C246.337 66.612 246.045 66.32 245.837 65.944C245.629 65.568 245.525 65.132 245.525 64.636V62.764C245.525 62.26 245.629 61.824 245.837 61.456C246.045 61.08 246.337 60.792 246.713 60.592C247.089 60.384 247.533 60.28 248.045 60.28C248.557 60.28 249.001 60.384 249.377 60.592C249.753 60.792 250.045 61.08 250.253 61.456C250.461 61.824 250.565 62.26 250.565 62.764V63.928H246.461V64.636C246.461 65.172 246.597 65.588 246.869 65.884C247.149 66.172 247.541 66.316 248.045 66.316C248.469 66.316 248.813 66.232 249.077 66.064C249.349 65.896 249.521 65.652 249.593 65.332H250.541C250.453 65.884 250.185 66.32 249.737 66.64C249.289 66.96 248.725 67.12 248.045 67.12ZM249.629 63.292V62.764C249.629 62.228 249.493 61.816 249.221 61.528C248.949 61.232 248.557 61.084 248.045 61.084C247.541 61.084 247.149 61.232 246.869 61.528C246.597 61.816 246.461 62.228 246.461 62.764V63.184H249.725L249.629 63.292ZM255.001 67.108C254.569 67.108 254.189 67.036 253.861 66.892C253.533 66.748 253.273 66.548 253.081 66.292C252.889 66.028 252.773 65.724 252.733 65.38H253.681C253.737 65.644 253.877 65.856 254.101 66.016C254.333 66.176 254.633 66.256 255.001 66.256H255.589C256.013 66.256 256.333 66.164 256.549 65.98C256.773 65.788 256.885 65.536 256.885 65.224C256.885 64.928 256.789 64.688 256.597 64.504C256.405 64.32 256.129 64.2 255.769 64.144L254.773 63.988C254.149 63.884 253.677 63.684 253.357 63.388C253.045 63.092 252.889 62.676 252.889 62.14C252.889 61.556 253.077 61.104 253.453 60.784C253.837 60.456 254.389 60.292 255.109 60.292H255.577C256.201 60.292 256.701 60.44 257.077 60.736C257.461 61.032 257.693 61.432 257.773 61.936H256.813C256.765 61.696 256.633 61.504 256.417 61.36C256.209 61.216 255.929 61.144 255.577 61.144H255.109C254.685 61.144 254.369 61.232 254.161 61.408C253.953 61.576 253.849 61.82 253.849 62.14C253.849 62.428 253.937 62.648 254.113 62.8C254.289 62.944 254.557 63.044 254.917 63.1L255.901 63.256C256.557 63.36 257.045 63.568 257.365 63.88C257.685 64.184 257.845 64.612 257.845 65.164C257.845 65.764 257.653 66.24 257.269 66.592C256.885 66.936 256.325 67.108 255.589 67.108H255.001ZM262.196 67.108C261.764 67.108 261.384 67.036 261.056 66.892C260.728 66.748 260.468 66.548 260.276 66.292C260.084 66.028 259.968 65.724 259.928 65.38H260.876C260.932 65.644 261.072 65.856 261.296 66.016C261.528 66.176 261.828 66.256 262.196 66.256H262.784C263.208 66.256 263.528 66.164 263.744 65.98C263.968 65.788 264.08 65.536 264.08 65.224C264.08 64.928 263.984 64.688 263.792 64.504C263.6 64.32 263.324 64.2 262.964 64.144L261.968 63.988C261.344 63.884 260.872 63.684 260.552 63.388C260.24 63.092 260.084 62.676 260.084 62.14C260.084 61.556 260.272 61.104 260.648 60.784C261.032 60.456 261.584 60.292 262.304 60.292H262.772C263.396 60.292 263.896 60.44 264.272 60.736C264.656 61.032 264.888 61.432 264.968 61.936H264.008C263.96 61.696 263.828 61.504 263.612 61.36C263.404 61.216 263.124 61.144 262.772 61.144H262.304C261.88 61.144 261.564 61.232 261.356 61.408C261.148 61.576 261.044 61.82 261.044 62.14C261.044 62.428 261.132 62.648 261.308 62.8C261.484 62.944 261.752 63.044 262.112 63.1L263.096 63.256C263.752 63.36 264.24 63.568 264.56 63.88C264.88 64.184 265.04 64.612 265.04 65.164C265.04 65.764 264.848 66.24 264.464 66.592C264.08 66.936 263.52 67.108 262.784 67.108H262.196ZM266.859 67V60.4H267.699V61.216H267.879L267.747 61.48C267.747 61.112 267.843 60.82 268.035 60.604C268.235 60.388 268.507 60.28 268.851 60.28C269.211 60.28 269.491 60.408 269.691 60.664C269.899 60.92 270.007 61.28 270.015 61.744L269.763 61.216H270.159L269.991 61.48C269.991 61.112 270.091 60.82 270.291 60.604C270.491 60.388 270.763 60.28 271.107 60.28C271.515 60.28 271.831 60.432 272.055 60.736C272.287 61.04 272.403 61.444 272.403 61.948V67H271.515V61.948C271.515 61.66 271.451 61.436 271.323 61.276C271.195 61.108 271.015 61.024 270.783 61.024C270.551 61.024 270.367 61.108 270.231 61.276C270.095 61.436 270.027 61.66 270.027 61.948V67H269.235V61.948C269.235 61.652 269.167 61.424 269.031 61.264C268.903 61.104 268.723 61.024 268.491 61.024C268.259 61.024 268.079 61.104 267.951 61.264C267.823 61.424 267.755 61.652 267.747 61.948V67H266.859ZM276.827 67.12C276.315 67.12 275.871 67.02 275.495 66.82C275.119 66.612 274.827 66.32 274.619 65.944C274.411 65.568 274.307 65.132 274.307 64.636V62.764C274.307 62.26 274.411 61.824 274.619 61.456C274.827 61.08 275.119 60.792 275.495 60.592C275.871 60.384 276.315 60.28 276.827 60.28C277.339 60.28 277.783 60.384 278.159 60.592C278.535 60.792 278.827 61.08 279.035 61.456C279.243 61.824 279.347 62.26 279.347 62.764V63.928H275.243V64.636C275.243 65.172 275.379 65.588 275.651 65.884C275.931 66.172 276.323 66.316 276.827 66.316C277.251 66.316 277.595 66.232 277.859 66.064C278.131 65.896 278.303 65.652 278.375 65.332H279.323C279.235 65.884 278.967 66.32 278.519 66.64C278.071 66.96 277.507 67.12 276.827 67.12ZM278.411 63.292V62.764C278.411 62.228 278.275 61.816 278.003 61.528C277.731 61.232 277.339 61.084 276.827 61.084C276.323 61.084 275.931 61.232 275.651 61.528C275.379 61.816 275.243 62.228 275.243 62.764V63.184H278.507L278.411 63.292ZM281.586 67V60.4H282.534V61.624H282.774L282.51 61.972C282.51 61.444 282.67 61.032 282.99 60.736C283.318 60.432 283.762 60.28 284.322 60.28C284.978 60.28 285.502 60.488 285.894 60.904C286.286 61.312 286.482 61.868 286.482 62.572V67H285.534V62.68C285.534 62.176 285.402 61.788 285.138 61.516C284.874 61.244 284.514 61.108 284.058 61.108C283.586 61.108 283.214 61.252 282.942 61.54C282.67 61.828 282.534 62.236 282.534 62.764V67H281.586ZM291.937 67C291.385 67 290.957 66.856 290.653 66.568C290.349 66.272 290.197 65.856 290.197 65.32V61.264H288.325V60.4H290.197V58.54H291.157V60.4H293.809V61.264H291.157V65.32C291.157 65.864 291.417 66.136 291.937 66.136H293.689V67H291.937ZM298.413 67.12C298.117 67.12 297.881 67.036 297.705 66.868C297.537 66.692 297.453 66.46 297.453 66.172C297.453 65.868 297.537 65.628 297.705 65.452C297.881 65.276 298.117 65.188 298.413 65.188C298.709 65.188 298.941 65.276 299.109 65.452C299.285 65.628 299.373 65.868 299.373 66.172C299.373 66.46 299.285 66.692 299.109 66.868C298.941 67.036 298.709 67.12 298.413 67.12Z" fill="#EBF1E5"/>
<path d="M11.32 49V13.96H17.08L27.784 43.96C27.72 43.16 27.64 42.184 27.544 41.032C27.48 39.848 27.416 38.616 27.352 37.336C27.32 36.024 27.304 34.792 27.304 33.64V13.96H31.48V49H25.72L15.064 19C15.128 19.768 15.192 20.744 15.256 21.928C15.32 23.08 15.368 24.312 15.4 25.624C15.464 26.904 15.496 28.136 15.496 29.32V49H11.32ZM50.1813 49.48C48.0693 49.48 46.2453 49.08 44.7093 48.28C43.2053 47.48 42.0373 46.328 41.2053 44.824C40.4053 43.288 40.0053 41.48 40.0053 39.4V23.56C40.0053 21.448 40.4053 19.64 41.2053 18.136C42.0373 16.632 43.2053 15.48 44.7093 14.68C46.2453 13.88 48.0693 13.48 50.1813 13.48C52.2933 13.48 54.1013 13.88 55.6053 14.68C57.1413 15.48 58.3093 16.632 59.1093 18.136C59.9413 19.64 60.3573 21.432 60.3573 23.512V39.4C60.3573 41.48 59.9413 43.288 59.1093 44.824C58.3093 46.328 57.1413 47.48 55.6053 48.28C54.1013 49.08 52.2933 49.48 50.1813 49.48ZM50.1813 45.592C52.0693 45.592 53.5093 45.064 54.5013 44.008C55.5253 42.92 56.0373 41.384 56.0373 39.4V23.56C56.0373 21.576 55.5253 20.056 54.5013 19C53.5093 17.912 52.0693 17.368 50.1813 17.368C48.3253 17.368 46.8853 17.912 45.8613 19C44.8373 20.056 44.3253 21.576 44.3253 23.56V39.4C44.3253 41.384 44.8373 42.92 45.8613 44.008C46.8853 45.064 48.3253 45.592 50.1813 45.592ZM68.9785 49V13.96H79.8265C81.9065 13.96 83.7305 14.392 85.2985 15.256C86.8665 16.088 88.0825 17.256 88.9465 18.76C89.8105 20.264 90.2425 22.024 90.2425 24.04C90.2425 26.408 89.6185 28.44 88.3705 30.136C87.1545 31.832 85.4905 33 83.3785 33.64L90.7225 49H85.6345L78.9145 34.12H73.2985V49H68.9785ZM73.2985 30.232H79.8265C81.6185 30.232 83.0585 29.672 84.1465 28.552C85.2345 27.4 85.7785 25.896 85.7785 24.04C85.7785 22.152 85.2345 20.648 84.1465 19.528C83.0585 18.408 81.6185 17.848 79.8265 17.848H73.2985V30.232ZM95.7438 49L104.864 13.96H110.672L119.744 49H115.376L113.072 39.688H102.464L100.16 49H95.7438ZM103.328 36.04H112.16L109.472 25.24C108.96 23.192 108.56 21.48 108.272 20.104C107.984 18.728 107.808 17.832 107.744 17.416C107.68 17.832 107.504 18.728 107.216 20.104C106.928 21.48 106.528 23.176 106.016 25.192L103.328 36.04Z" fill="#EBF1E5"/>
<path d="M291 14C296.523 14 301 18.4772 301 24V39C301 44.5228 296.523 49 291 49H144C138.477 49 134 44.5228 134 39V24C134 18.4772 138.477 14 144 14H291Z" fill="#EBF1E5"/>
<rect x="197" y="35" width="106" height="7" rx="3.5" fill="#2A2A2A"/>
<rect x="130" y="21" width="100" height="7" rx="3.5" fill="#2A2A2A"/>
</svg>
